HIERARCHY
ROOT ding_shaowen:Solving:Hips
{
	OFFSET 0.000000 0.000000 0.000000
	CHANNELS 6 Xposition Yposition Zposition Xrotation Yrotation Zrotation
	JOINT ding_shaowen:Solving:Spine
	{
		OFFSET 0.000000 -12.793800 2.116599
		CHANNELS 6 Xposition Yposition Zposition Xrotation Yrotation Zrotation
		JOINT ding_shaowen:Solving:Spine1
		{
			OFFSET 0.000000 -8.721180 1.537782
			CHANNELS 6 Xposition Yposition Zposition Xrotation Yrotation Zrotation
			JOINT ding_shaowen:Solving:Spine2
			{
				OFFSET 0.000000 -8.822016 0.771827
				CHANNELS 6 Xposition Yposition Zposition Xrotation Yrotation Zrotation
				JOINT ding_shaowen:Solving:Spine3
				{
					OFFSET 0.000000 -8.855719 0.000000
					CHANNELS 6 Xposition Yposition Zposition Xrotation Yrotation Zrotation
					JOINT ding_shaowen:Solving:Neck
					{
						OFFSET 0.000000 -11.385921 -1.138590
						CHANNELS 6 Xposition Yposition Zposition Xrotation Yrotation Zrotation
						JOINT ding_shaowen:Solving:Neck1
						{
							OFFSET 0.000000 -6.705494 -0.586653
							CHANNELS 6 Xposition Yposition Zposition Xrotation Yrotation Zrotation
							JOINT ding_shaowen:Solving:Head
							{
								OFFSET 0.000000 -6.628845 -1.168845
								CHANNELS 6 Xposition Yposition Zposition Xrotation Yrotation Zrotation
								JOINT ding_shaowen:Solving:HeadEnd
								{
									OFFSET 0.000000 -9.728077 0.000002
									CHANNELS 6 Xposition Yposition Zposition Xrotation Yrotation Zrotation
									End Site
									{
										OFFSET 0.000000 -9.728081 0.000002
									}
								}
							}
						}
					}
					JOINT ding_shaowen:Solving:RightShoulder
					{
						OFFSET 0.000000 -8.132801 -5.345683
						CHANNELS 6 Xposition Yposition Zposition Xrotation Yrotation Zrotation
						JOINT ding_shaowen:Solving:RightArm
						{
							OFFSET -20.692947 -0.000008 0.000000
							CHANNELS 6 Xposition Yposition Zposition Xrotation Yrotation Zrotation
							JOINT ding_shaowen:Solving:RightForeArm
							{
								OFFSET -30.243591 -0.000008 0.000000
								CHANNELS 6 Xposition Yposition Zposition Xrotation Yrotation Zrotation
								JOINT ding_shaowen:Solving:RightHand
								{
									OFFSET -24.757149 -0.000008 0.000000
									CHANNELS 6 Xposition Yposition Zposition Xrotation Yrotation Zrotation
									JOINT ding_shaowen:Solving:RightHandThumb1
									{
										OFFSET -3.599983 2.820858 -2.676913
										CHANNELS 6 Xposition Yposition Zposition Xrotation Yrotation Zrotation
										End Site
										{
											OFFSET -5.243469 0.000000 -5.291954
										}
									}
									JOINT ding_shaowen:Solving:RightHandMiddle1
									{
										OFFSET -9.599960 -0.000004 0.061538
										CHANNELS 6 Xposition Yposition Zposition Xrotation Yrotation Zrotation
										End Site
										{
											OFFSET -7.449745 -0.000004 0.000000
										}
									}
								}
							}
						}
					}
					JOINT ding_shaowen:Solving:LeftShoulder
					{
						OFFSET 0.000000 -8.132801 -5.345683
						CHANNELS 6 Xposition Yposition Zposition Xrotation Yrotation Zrotation
						JOINT ding_shaowen:Solving:LeftArm
						{
							OFFSET 20.692947 -0.000008 0.000000
							CHANNELS 6 Xposition Yposition Zposition Xrotation Yrotation Zrotation
							JOINT ding_shaowen:Solving:LeftForeArm
							{
								OFFSET 30.243591 -0.000008 0.000000
								CHANNELS 6 Xposition Yposition Zposition Xrotation Yrotation Zrotation
								JOINT ding_shaowen:Solving:LeftHand
								{
									OFFSET 24.757149 -0.000008 0.000000
									CHANNELS 6 Xposition Yposition Zposition Xrotation Yrotation Zrotation
									JOINT ding_shaowen:Solving:LeftHandThumb1
									{
										OFFSET 3.599983 2.820858 -2.676913
										CHANNELS 6 Xposition Yposition Zposition Xrotation Yrotation Zrotation
										End Site
										{
											OFFSET 5.243469 0.000000 -5.291954
										}
									}
									JOINT ding_shaowen:Solving:LeftHandMiddle1
									{
										OFFSET 9.599960 -0.000004 0.061538
										CHANNELS 6 Xposition Yposition Zposition Xrotation Yrotation Zrotation
										End Site
										{
											OFFSET 7.449745 -0.000004 0.000000
										}
									}
								}
							}
						}
					}
				}
			}
		}
	}
	JOINT ding_shaowen:Solving:RightUpLeg
	{
		OFFSET -11.038935 0.000000 0.000000
		CHANNELS 6 Xposition Yposition Zposition Xrotation Yrotation Zrotation
		JOINT ding_shaowen:Solving:RightLeg
		{
			OFFSET 0.000000 45.093018 -0.000006
			CHANNELS 6 Xposition Yposition Zposition Xrotation Yrotation Zrotation
			JOINT ding_shaowen:Solving:RightFoot
			{
				OFFSET 0.000000 38.174210 -0.000006
				CHANNELS 6 Xposition Yposition Zposition Xrotation Yrotation Zrotation
				JOINT ding_shaowen:Solving:RightForeFoot
				{
					OFFSET 0.000000 3.459915 -0.000000
					CHANNELS 6 Xposition Yposition Zposition Xrotation Yrotation Zrotation
					JOINT ding_shaowen:Solving:RightToeBase
					{
						OFFSET 0.000000 0.000000 -13.550137
						CHANNELS 6 Xposition Yposition Zposition Xrotation Yrotation Zrotation
						JOINT ding_shaowen:Solving:RightToeBaseEnd
						{
							OFFSET 0.000000 0.000000 -3.436555
							CHANNELS 6 Xposition Yposition Zposition Xrotation Yrotation Zrotation
							End Site
							{
								OFFSET 0.000000 -3.436554 0.000000
							}
						}
					}
				}
			}
		}
	}
	JOINT ding_shaowen:Solving:LeftUpLeg
	{
		OFFSET 11.038935 0.000000 0.000000
		CHANNELS 6 Xposition Yposition Zposition Xrotation Yrotation Zrotation
		JOINT ding_shaowen:Solving:LeftLeg
		{
			OFFSET 0.000000 45.093018 -0.000006
			CHANNELS 6 Xposition Yposition Zposition Xrotation Yrotation Zrotation
			JOINT ding_shaowen:Solving:LeftFoot
			{
				OFFSET 0.000000 38.174210 -0.000006
				CHANNELS 6 Xposition Yposition Zposition Xrotation Yrotation Zrotation
				JOINT ding_shaowen:Solving:LeftForeFoot
				{
					OFFSET 0.000000 3.459915 -0.000000
					CHANNELS 6 Xposition Yposition Zposition Xrotation Yrotation Zrotation
					JOINT ding_shaowen:Solving:LeftToeBase
					{
						OFFSET 0.000000 0.000000 -13.550137
						CHANNELS 6 Xposition Yposition Zposition Xrotation Yrotation Zrotation
						JOINT ding_shaowen:Solving:LeftToeBaseEnd
						{
							OFFSET 0.000000 0.000000 -4.223781
							CHANNELS 6 Xposition Yposition Zposition Xrotation Yrotation Zrotation
							End Site
							{
								OFFSET 0.000000 -4.223778 0.000000
							}
						}
					}
				}
			}
		}
	}
}
MOTION
Frames: 4
Frame Time: 0.041667
3.686369 -91.293823 -94.804138 83.812363 0.349675 2.680032 0.000000 -12.793812 2.116582 12.642227 -0.191944 -4.969981 -0.000001 -8.721146 1.537800 -0.835840 0.251622 -1.149560 -0.000000 -8.822022 0.771821 -4.139667 5.135165 -0.365829 0.000001 -8.855705 -0.000008 0.659704 0.972713 -1.640968 0.000003 -11.385950 -1.138630 5.218097 -1.136906 -2.439475 0.000004 -6.705505 -0.586667 -0.918867 -10.001729 0.973408 0.000001 -6.628864 -1.168872 3.284177 -1.621069 3.255676 0.000002 -9.728054 0.000003 -0.000002 -0.000001 0.000001 0.000001 -8.132805 -5.345712 0.000007 21.501753 4.405071 -20.692951 -0.000006 0.000001 1.402478 -7.994261 -79.617118 -30.243572 -0.000008 -0.000003 -374.566591 -64.070740 -373.153998 -24.757141 -0.000005 -0.000003 -6.617597 8.024662 39.729161 -3.600006 2.820841 -2.676927 -0.000002 0.000003 -0.000000 -9.599943 0.000001 0.061542 -0.000000 -0.000003 0.000003 0.000000 -8.132809 -5.345720 0.000000 -14.281427 -8.485048 20.692951 -0.000007 0.000001 -41.910983 34.855989 98.695223 30.243586 0.000005 -0.000005 327.374792 56.124641 -332.009840 24.757145 0.000005 -0.000006 0.694570 -4.291952 9.201623 3.600003 2.820860 -2.676927 -0.000000 -0.000003 -0.000004 9.599967 0.000013 0.061513 -0.000002 -0.000002 -0.000011 -11.038937 -0.000007 -0.000023 8.690938 13.006481 0.711187 -0.000007 45.093025 -0.000016 -1.798299 -0.000001 -0.000001 -0.000003 38.174217 0.000005 13.565323 5.453488 0.692705 0.000005 3.459923 0.000003 -0.000001 0.000002 -0.000000 0.000013 -0.000000 -13.550141 -19.613491 -0.000003 -0.000001 0.000005 -0.000000 -3.436553 -0.000000 -0.000001 0.000000 11.038938 -0.000019 -0.000005 8.993352 -12.057850 -8.079571 0.000008 45.093010 -0.000015 -3.483599 0.000000 -0.000000 0.000001 38.174206 -0.000022 14.684654 -13.532319 5.576401 0.000005 3.459915 0.000005 -0.000000 0.000001 0.000001 -0.000006 0.000001 -13.550141 3.156241 -0.000001 0.000000 0.000009 0.000001 -4.223789 0.000003 0.000000 -0.000001 
3.717906 -91.324181 -94.809464 83.851145 0.343403 2.658198 -0.000000 -12.793807 2.116597 12.648948 -0.181346 -4.975111 -0.000001 -8.721170 1.537794 -0.854147 0.245657 -1.130754 -0.000000 -8.822043 0.771804 -4.166502 5.022267 -0.342810 0.000002 -8.855733 0.000007 0.695328 0.990391 -1.666841 0.000000 -11.385928 -1.138613 5.267010 -1.178253 -2.357122 -0.000001 -6.705500 -0.586640 -0.952865 -9.949493 0.994330 -0.000002 -6.628848 -1.168825 3.251435 -1.631321 3.299978 0.000002 -9.728077 0.000015 -0.000002 0.000000 -0.000001 0.000001 -8.132828 -5.345698 0.000005 21.489990 4.443490 -20.692957 -0.000038 -0.000001 0.968107 -7.986458 -79.982492 -30.243576 -0.000015 0.000025 -372.420108 -66.218035 -371.394377 -24.757135 -0.000018 0.000004 -6.772761 8.019841 40.406136 -3.599992 2.820880 -2.676886 0.000004 -0.000009 -0.000003 -9.599960 0.000022 0.061557 0.000001 -0.000001 -0.000009 0.000001 -8.132828 -5.345698 -0.000002 -14.048270 -6.720404 20.692947 -0.000018 0.000013 -39.306813 45.380931 94.764442 30.243612 -0.000007 0.000021 293.059730 42.148223 -302.390342 24.757147 0.000008 0.000003 17.962446 -20.391967 42.935795 3.600030 2.820861 -2.676923 0.000003 0.000000 0.000001 9.599959 0.000015 0.061537 -0.000002 0.000001 -0.000001 -11.038937 -0.000013 -0.000019 8.610821 13.017518 0.753880 0.000002 45.093014 -0.000008 -1.772097 -0.000001 0.000001 -0.000003 38.174210 -0.000015 13.584369 5.453814 0.697146 0.000000 3.459908 -0.000008 -0.000001 -0.000004 -0.000000 0.000005 0.000012 -13.550130 -19.618743 -0.000005 -0.000001 0.000006 -0.000007 -3.436535 0.000001 -0.000004 -0.000001 11.038932 -0.000013 0.000009 8.934217 -12.036866 -8.039830 0.000000 45.093025 0.000004 -3.467397 -0.000000 -0.000003 0.000000 38.174198 -0.000013 14.705235 -13.529885 5.515023 -0.000009 3.459908 -0.000008 0.000001 -0.000002 0.000001 0.000014 -0.000004 -13.550142 3.119032 0.000001 0.000001 -0.000002 -0.000000 -4.223777 -0.000000 0.000002 -0.000001 
3.767581 -91.362381 -94.799103 83.885160 0.362322 2.584828 -0.000001 -12.793795 2.116604 12.668017 -0.157826 -4.933091 -0.000001 -8.721180 1.537777 -0.866266 0.234320 -1.088090 -0.000000 -8.822021 0.771813 -4.208223 4.885170 -0.304253 -0.000000 -8.855715 -0.000003 0.699973 0.952565 -1.677780 -0.000001 -11.385945 -1.138583 5.318177 -1.166673 -2.370888 -0.000000 -6.705521 -0.586663 -0.935187 -9.904848 0.986553 0.000003 -6.628835 -1.168867 3.256357 -1.618259 3.268920 -0.000001 -9.728100 -0.000013 -0.000002 -0.000000 -0.000000 -0.000002 -8.132801 -5.345681 0.000008 21.486064 4.570419 -20.692947 -0.000023 0.000013 0.424700 -8.039326 -80.576664 -30.243586 -0.000002 -0.000005 -371.553931 -67.841059 -370.721249 -24.757172 -0.000019 -0.000001 -6.580822 7.491511 41.504321 -3.599986 2.820825 -2.676921 0.000004 -0.000000 -0.000003 -9.599951 -0.000022 0.061532 0.000001 0.000002 -0.000007 -0.000003 -8.132805 -5.345681 0.000001 -13.980942 -6.601469 20.692947 -0.000017 -0.000005 -40.007877 44.787589 95.522531 30.243599 -0.000012 0.000016 298.575327 46.049801 -307.108391 24.757141 -0.000006 0.000018 26.845297 -10.698489 69.857754 3.599996 2.820829 -2.676919 0.000001 0.000000 0.000007 9.599946 -0.000007 0.061523 0.000003 -0.000004 0.000001 -11.038937 -0.000004 -0.000015 8.500245 13.032652 0.869134 0.000002 45.093037 -0.000005 -1.722888 -0.000001 -0.000000 0.000007 38.174202 -0.000001 13.512572 5.434524 0.654591 0.000008 3.459915 -0.000013 0.000001 0.000002 -0.000000 0.000010 -0.000015 -13.550138 -19.672299 -0.000004 -0.000001 0.000004 0.000015 -3.436560 0.000000 -0.000006 -0.000001 11.038935 -0.000012 -0.000003 8.895987 -12.081097 -7.931385 0.000008 45.093033 -0.000001 -3.470161 0.000003 0.000000 0.000002 38.174202 -0.000018 14.682207 -13.490276 5.534729 0.000008 3.459915 0.000015 0.000000 -0.000001 0.000000 0.000000 -0.000020 -13.550141 3.150431 0.000004 0.000001 -0.000012 0.000007 -4.223801 -0.000001 -0.000005 0.000000 
3.807366 -91.380646 -94.803375 83.867497 0.316359 2.580256 -0.000001 -12.793835 2.116597 12.700400 -0.157490 -4.931351 -0.000001 -8.721161 1.537771 -0.859502 0.229681 -1.078526 -0.000002 -8.822017 0.771810 -4.221658 4.792791 -0.285650 0.000001 -8.855727 0.000003 0.704226 0.931731 -1.684284 0.000001 -11.385962 -1.138592 5.355928 -1.167482 -2.393637 0.000000 -6.705490 -0.586648 -0.924124 -9.824589 1.003974 -0.000000 -6.628850 -1.168855 3.264056 -1.611946 3.269327 -0.000001 -9.728085 -0.000001 -0.000000 -0.000000 0.000000 0.000006 -8.132862 -5.345701 0.000010 21.492244 4.487374 -20.692945 -0.000011 0.000005 0.028087 -8.564809 -80.688631 -30.243582 -0.000010 -0.000026 -370.629943 -69.693140 -369.983069 -24.757158 0.000007 -0.000013 -6.760220 7.301301 43.007434 -3.599998 2.820842 -2.676908 -0.000003 0.000003 0.000011 -9.599925 -0.000015 0.061512 -0.000010 -0.000004 0.000006 0.000004 -8.132862 -5.345701 0.000004 -13.952699 -6.624003 20.692945 -0.000045 0.000018 -40.608582 43.261151 96.830834 30.243584 -0.000016 -0.000001 307.183414 51.000770 -314.307001 24.757153 0.000004 -0.000008 24.964024 -2.518338 84.608142 3.599998 2.820829 -2.676906 -0.000000 0.000003 0.000000 9.599957 -0.000015 0.061528 -0.000003 -0.000001 -0.000004 -11.038936 -0.000030 0.000007 8.497010 13.102979 0.895016 -0.000006 45.093018 -0.000016 -1.702300 -0.000000 0.000000 -0.000008 38.174221 -0.000027 13.539418 5.403220 0.602651 0.000002 3.459908 0.000006 0.000000 -0.000001 -0.000001 0.000001 -0.000011 -13.550127 -19.673551 -0.000007 -0.000002 -0.000000 -0.000000 -3.436551 -0.000000 -0.000001 0.000000 11.038930 -0.000023 -0.000000 8.983079 -11.740758 -7.897806 0.000006 45.093025 -0.000036 -3.553769 0.000002 -0.000000 0.000004 38.174194 0.000007 14.755217 -13.789027 5.575420 0.000009 3.459908 0.000005 -0.000000 0.000002 0.000001 0.000006 0.000009 -13.550159 3.168972 -0.000000 0.000000 -0.000003 -0.000006 -4.223779 0.000004 -0.000002 -0.000000 
